<svg width="24" height="24" viewBox="0 0 24 24" fill="none" xmlns="http://www.w3.org/2000/svg">
<path d="M20.145 7.20001C19.325 5.38001 17.605 4.20001 15.745 4.20001C13.885 4.20001 12.685 5.02001 11.985 5.90001C11.285 5.02001 10.085 4.20001 8.22502 4.20001C6.36502 4.20001 4.64502 5.38001 3.82502 7.20001C2.98502 9.10001 3.34502 11.2 4.80502 12.84C8.30502 16.78 11.405 19.56 11.445 19.58C11.605 19.72 11.785 19.78 11.985 19.78C12.185 19.78 12.365 19.72 12.525 19.58C12.565 19.56 15.645 16.76 19.165 12.84C20.645 11.2 21.005 9.10001 20.145 7.20001ZM17.985 11.78C15.385 14.68 13.025 16.96 12.005 17.9C10.985 16.94 8.62502 14.68 6.02502 11.76C4.98502 10.58 4.72502 9.16001 5.30502 7.82001C5.84502 6.60001 7.02502 5.76002 8.24502 5.76002C10.625 5.76002 11.165 7.54002 11.225 7.76002C11.305 8.12002 11.625 8.36002 11.985 8.36002C12.345 8.36002 12.665 8.10002 12.765 7.76002C12.825 7.56002 13.365 5.76002 15.745 5.76002C16.945 5.76002 18.125 6.58001 18.685 7.82001C19.285 9.18001 19.025 10.6 17.985 11.78ZM17.785 9.46002C17.805 9.84002 17.525 10.18 17.125 10.2C17.105 10.2 17.085 10.2 17.085 10.2C16.725 10.2 16.405 9.92 16.385 9.54C16.305 8.4 15.565 8.22001 15.425 8.20001C15.045 8.14001 14.785 7.80001 14.825 7.42001C14.885 7.04001 15.245 6.78001 15.625 6.82001C16.325 6.92001 17.665 7.60002 17.785 9.46002ZM16.825 10.62C16.985 10.78 17.065 10.98 17.065 11.18C17.065 11.4 16.985 11.6 16.825 11.74C16.685 11.9 16.465 11.98 16.265 11.98C16.065 11.98 15.845 11.9 15.705 11.74C15.545 11.6 15.465 11.38 15.465 11.18C15.465 10.98 15.545 10.76 15.705 10.62C15.845 10.48 16.065 10.38 16.265 10.38C16.465 10.4 16.665 10.48 16.825 10.62Z" fill="#FF6B00" fill-opacity="0.7"/>
</svg>
