<svg width="36" height="36" viewBox="0 0 36 36" fill="none" xmlns="http://www.w3.org/2000/svg">
<path d="M0 4C0 1.79086 1.79086 0 4 0H32C34.2091 0 36 1.79086 36 4V32C36 34.2091 34.2091 36 32 36H4C1.79086 36 0 34.2091 0 32V4Z" fill="#FF6B00" fill-opacity="0.6"/>
<path d="M25.9576 18.15C25.9576 18.9 25.3576 19.5 24.6076 19.5H19.2076V24.6C19.2076 25.35 18.6076 25.95 17.8576 25.95C17.1076 25.95 16.5076 25.35 16.5076 24.6V19.5H11.4076C10.6576 19.5 10.0576 18.9 10.0576 18.15C10.0576 17.4 10.6576 16.8 11.4076 16.8H16.5076V11.4C16.5076 10.65 17.1076 10.05 17.8576 10.05C18.6076 10.05 19.2076 10.65 19.2076 11.4V16.8H24.6076C25.3576 16.8 25.9576 17.4 25.9576 18.15Z" fill="white"/>
</svg>
